# xmcd
#
# Track frame offsets: 
#        150
#        11491
#        40037
#        56932
#        71668
#        88011
#        107337
#        132456
#        146148
#        159719
#        172765
#        185176
#
# Disc length: 2763 seconds
#
# Revision: 5
# Processed by: cddbd v1.5.2PL0 Copyright (c) Steve Scherf et al.
# Submitted via: ExactAudioCopy v0.95b4
#
DISCID=a80ac90c
DTITLE=Various Artist - Best Of Blues (Turquoise)
DYEAR=2000
DGENRE=Blues
TTITLE0=John Lee Hooker - Boom Boom
TTITLE1=B.B. King (live) - Payin' The Cost To Be The Boss
TTITLE2=Ike &Tina Turner - I Smell Trouble
TTITLE3=Charles Brown - Baby Let Me Hold Your Hand
TTITLE4=Memphis Slim - Blue And Disgusted
TTITLE5=B.B. King (live) - Sweet Sixteen
TTITLE6=Roy Brown - Boogie Woogie Blues
TTITLE7=Buddy Guy and Junior Wells - No Use Cryin'
TTITLE8=Dinah Washington - Blues On My Weary Mind
TTITLE9=Roy Milton - I Got A Big Fat Mama
TTITLE10=Ike and Tina Turner - Poor Fool
TTITLE11=Big Joe Turner - Wee Baby Blues
EXTD=YEAR: 2000 ID3G:   0
EXTT0=
EXTT1=
EXTT2=
EXTT3=
EXTT4=
EXTT5=
EXTT6=
EXTT7=
EXTT8=
EXTT9=
EXTT10=
EXTT11=
PLAYORDER=
